<svg xmlns="http://www.w3.org/2000/svg" width="32.998" height="30.658" viewBox="0 0 32.998 30.658">
  <g id="Group_66" data-name="Group 66" transform="translate(-698.414 -1038)">
    <path id="Path_28" data-name="Path 28" d="M508.818,113.578a2.863,2.863,0,0,0-2.225-1.654,3.384,3.384,0,0,0-.9,0,2.864,2.864,0,0,0-2.225,1.654,3.193,3.193,0,0,0,.154,3.046l2.526,4.119,2.518-4.119A3.193,3.193,0,0,0,508.818,113.578Z" transform="translate(222.278 929.883)" fill="#30c5f4"/>
    <path id="Path_29" data-name="Path 29" d="M178.922,114.55a11.383,11.383,0,1,0,8.036,3.334,11.368,11.368,0,0,0-8.036-3.334Zm10.04,10.721h-4.089a15.321,15.321,0,0,0-2.634-8.851,10.078,10.078,0,0,1,6.723,8.851Zm-10.688-9.31v9.31h-4.01C174.412,120.568,176.133,116.635,178.274,115.961Zm0,10.607v9.31c-2.141-.675-3.862-4.607-4.01-9.31Zm1.3,9.31v-9.31h4.008C183.432,131.272,181.711,135.2,179.57,135.879Zm0-10.607v-9.31c2.141.675,3.862,4.607,4.01,9.31ZM175.6,116.42a15.324,15.324,0,0,0-2.633,8.851H168.88a10.081,10.081,0,0,1,6.722-8.853Zm-6.72,10.148h4.089a15.319,15.319,0,0,0,2.633,8.851,10.081,10.081,0,0,1-6.722-8.851Zm13.36,8.853a15.32,15.32,0,0,0,2.634-8.851h4.089a10.078,10.078,0,0,1-6.723,8.851Z" transform="translate(534.819 927.41)" fill="#30c5f4"/>
    <path id="Path_30" data-name="Path 30" d="M125.289,86.289a14.032,14.032,0,1,1,9.588-24.282l.885-.947a15.329,15.329,0,1,0,4.858,11.2h-1.293a14.048,14.048,0,0,1-14.037,14.032Z" transform="translate(588.453 981.074)" fill="#30c5f4"/>
  </g>
</svg>
