<svg xmlns="http://www.w3.org/2000/svg" width="35.185" height="33.609" viewBox="0 0 35.185 33.609">
  <g id="Group_75" data-name="Group 75" transform="translate(758.185 -519.714) rotate(90)">
    <g id="Group_74" data-name="Group 74" transform="translate(519.714 723)">
      <path id="Path_31" data-name="Path 31" d="M119.127,25.265a.729.729,0,0,0-.727.727,15.333,15.333,0,1,1-16.423-15.224l-.654.509a.746.746,0,0,0,.436,1.344.634.634,0,0,0,.436-.145l2.471-1.889a.776.776,0,0,0,.291-.618.688.688,0,0,0-.327-.581l-2.471-1.635a.736.736,0,1,0-.8,1.235l.509.327a16.772,16.772,0,1,0,17.985,16.714.761.761,0,0,0-.727-.763Z" transform="translate(-86.245 -7.629)" fill="#30c5f4"/>
      <path id="Path_32" data-name="Path 32" d="M571.9,218.188a.908.908,0,1,1-.908-.908.908.908,0,0,1,.908.908" transform="translate(-538.688 -203.677)" fill="#30c5f4"/>
      <path id="Path_33" data-name="Path 33" d="M553.977,166.108a.908.908,0,1,1-.908-.908.908.908,0,0,1,.908.908" transform="translate(-521.931 -154.977)" fill="#30c5f4"/>
      <path id="Path_34" data-name="Path 34" d="M520.377,117.388a.908.908,0,1,1-.908-.908.908.908,0,0,1,.908.908" transform="translate(-490.511 -109.418)" fill="#30c5f4"/>
      <path id="Path_35" data-name="Path 35" d="M473.9,75.388a.908.908,0,1,1-.908-.908.908.908,0,0,1,.908.908" transform="translate(-447.046 -70.143)" fill="#30c5f4"/>
      <path id="Path_36" data-name="Path 36" d="M418.457,46.267a.908.908,0,1,1-.908-.908.908.908,0,0,1,.908.908" transform="translate(-395.203 -42.911)" fill="#30c5f4"/>
      <path id="Path_37" data-name="Path 37" d="M254.553,181.788a.768.768,0,0,0-.763-.763h-9.846l1.672-1.671a.745.745,0,0,0-.545-1.272.8.8,0,0,0-.545.218l-2.943,2.943a.745.745,0,0,0,0,1.054l2.943,2.98a.771.771,0,0,0,1.09-1.09l-1.672-1.708h9.846a.687.687,0,0,0,.763-.691Z" transform="translate(-231.299 -167.023)" fill="#30c5f4"/>
      <path id="Path_38" data-name="Path 38" d="M254.2,303.653a.74.74,0,0,0,.545-.218l2.943-2.979a.745.745,0,0,0,0-1.054l-2.943-2.943a.745.745,0,0,0-1.054,1.054l1.672,1.671h-9.883a.763.763,0,1,0,0,1.526h9.846l-1.671,1.708a.79.79,0,0,0,0,1.09,1.206,1.206,0,0,0,.545.145Z" transform="translate(-234.438 -277.516)" fill="#30c5f4"/>
    </g>
  </g>
</svg>
