<svg xmlns="http://www.w3.org/2000/svg" width="66" height="66" viewBox="0 0 66 66">
  <g id="Group_220" data-name="Group 220" transform="translate(-1805 -33)">
    <path id="Path_98" data-name="Path 98" d="M14,0H52A14,14,0,0,1,66,14V52A14,14,0,0,1,52,66H14A14,14,0,0,1,0,52V14A14,14,0,0,1,14,0Z" transform="translate(1805 33)" fill="#25406e"/>
    <g id="Group_142" data-name="Group 142" transform="translate(-439.284 418.596)">
      <g id="Group_54" data-name="Group 54" transform="translate(2253 -379)">
        <g id="Group_6" data-name="Group 6" transform="translate(2.12 2.68)">
          <g id="Group_2" data-name="Group 2" transform="translate(0.643 2.021)">
            <path id="Path_7" data-name="Path 7" d="M68.875,75.55A21.445,21.445,0,1,1,90.32,54.1,21.469,21.469,0,0,1,68.875,75.55Zm0-42.727A21.282,21.282,0,1,0,90.157,54.1,21.307,21.307,0,0,0,68.875,32.823Z" transform="translate(-47.43 -32.66)" fill="#fff"/>
          </g>
          <g id="Group_3" data-name="Group 3" transform="translate(3.53 2.888)">
            <path id="Path_8" data-name="Path 8" d="M79.7,78.8a21.444,21.444,0,1,1,21.445-21.442A21.466,21.466,0,0,1,79.7,78.8Zm0-42.724a21.282,21.282,0,1,0,21.282,21.282A21.307,21.307,0,0,0,79.7,36.073Z" transform="translate(-58.26 -35.91)" fill="#fff"/>
          </g>
          <g id="Group_4" data-name="Group 4" transform="translate(1.41)">
            <path id="Path_9" data-name="Path 9" d="M71.755,67.97A21.445,21.445,0,1,1,93.2,46.525,21.469,21.469,0,0,1,71.755,67.97Zm0-42.727A21.282,21.282,0,1,0,93.037,46.525,21.307,21.307,0,0,0,71.755,25.243Z" transform="translate(-50.31 -25.08)" fill="#fff"/>
          </g>
          <g id="Group_5" data-name="Group 5" transform="translate(0 4.618)">
            <path id="Path_10" data-name="Path 10" d="M66.465,85.29A21.445,21.445,0,1,1,87.91,63.845,21.469,21.469,0,0,1,66.465,85.29Zm0-42.724A21.282,21.282,0,1,0,87.747,63.848,21.307,21.307,0,0,0,66.465,42.565Z" transform="translate(-45.02 -42.4)" fill="#fff"/>
          </g>
        </g>
        <g id="Group_53" data-name="Group 53">
          <g id="Group_7" data-name="Group 7" transform="translate(5.503 22.735)">
            <circle id="Ellipse_1" data-name="Ellipse 1" cx="0.741" cy="0.741" r="0.741" fill="#fff"/>
          </g>
          <g id="Group_8" data-name="Group 8" transform="translate(9.908 5.924)">
            <circle id="Ellipse_2" data-name="Ellipse 2" cx="0.741" cy="0.741" r="0.741" fill="#fff"/>
          </g>
          <g id="Group_9" data-name="Group 9" transform="translate(21.344 7.871)">
            <circle id="Ellipse_3" data-name="Ellipse 3" cx="0.741" cy="0.741" r="0.741" fill="#fff"/>
          </g>
          <g id="Group_10" data-name="Group 10" transform="translate(16.427 3.866)">
            <circle id="Ellipse_4" data-name="Ellipse 4" cx="0.741" cy="0.741" r="0.741" fill="#fff"/>
          </g>
          <g id="Group_11" data-name="Group 11" transform="translate(9.908 10.729)">
            <circle id="Ellipse_5" data-name="Ellipse 5" cx="0.741" cy="0.741" r="0.741" transform="translate(0 0)" fill="#fff"/>
          </g>
          <g id="Group_12" data-name="Group 12" transform="translate(0 28.007)">
            <circle id="Ellipse_6" data-name="Ellipse 6" cx="0.741" cy="0.741" r="0.741" fill="#fff"/>
          </g>
          <g id="Group_13" data-name="Group 13" transform="translate(3.266 28.846)">
            <circle id="Ellipse_7" data-name="Ellipse 7" cx="0.741" cy="0.741" r="0.741" fill="#fff"/>
          </g>
          <g id="Group_14" data-name="Group 14" transform="translate(1.93 18.715)">
            <circle id="Ellipse_8" data-name="Ellipse 8" cx="0.741" cy="0.741" r="0.741" fill="#fff"/>
          </g>
          <g id="Group_15" data-name="Group 15" transform="translate(10.164 39.858)">
            <circle id="Ellipse_9" data-name="Ellipse 9" cx="0.741" cy="0.741" r="0.741" fill="#fff"/>
          </g>
          <g id="Group_16" data-name="Group 16" transform="translate(3.506 35.832)">
            <circle id="Ellipse_10" data-name="Ellipse 10" cx="0.741" cy="0.741" r="0.741" fill="#fff"/>
          </g>
          <g id="Group_17" data-name="Group 17" transform="translate(9.076 15.918)">
            <circle id="Ellipse_11" data-name="Ellipse 11" cx="0.741" cy="0.741" r="0.741" fill="#fff"/>
          </g>
          <g id="Group_18" data-name="Group 18" transform="translate(27.631 49.428)">
            <circle id="Ellipse_12" data-name="Ellipse 12" cx="0.741" cy="0.741" r="0.741" fill="#fff"/>
          </g>
          <g id="Group_19" data-name="Group 19" transform="translate(8.337 43.439)">
            <circle id="Ellipse_13" data-name="Ellipse 13" cx="0.741" cy="0.741" r="0.741" fill="#fff"/>
          </g>
          <g id="Group_20" data-name="Group 20" transform="translate(3.53 40.749)">
            <circle id="Ellipse_14" data-name="Ellipse 14" cx="0.741" cy="0.741" r="0.741" fill="#fff"/>
          </g>
          <g id="Group_21" data-name="Group 21" transform="translate(6.962 33.302)">
            <circle id="Ellipse_15" data-name="Ellipse 15" cx="0.741" cy="0.741" r="0.741" fill="#fff"/>
          </g>
          <g id="Group_22" data-name="Group 22" transform="translate(39.725 44.7)">
            <circle id="Ellipse_16" data-name="Ellipse 16" cx="0.741" cy="0.741" r="0.741" fill="#fff"/>
          </g>
          <g id="Group_23" data-name="Group 23" transform="translate(12.161 45.452)">
            <circle id="Ellipse_17" data-name="Ellipse 17" cx="0.741" cy="0.741" r="0.741" fill="#fff"/>
          </g>
          <g id="Group_24" data-name="Group 24" transform="translate(19.531 48.497)">
            <circle id="Ellipse_18" data-name="Ellipse 18" cx="0.741" cy="0.741" r="0.741" fill="#fff"/>
          </g>
          <g id="Group_25" data-name="Group 25" transform="translate(23.258 43.37)">
            <circle id="Ellipse_19" data-name="Ellipse 19" cx="0.741" cy="0.741" r="0.741" fill="#fff"/>
          </g>
          <g id="Group_26" data-name="Group 26" transform="translate(18.251 43.61)">
            <circle id="Ellipse_20" data-name="Ellipse 20" cx="0.741" cy="0.741" r="0.741" transform="translate(0)" fill="#fff"/>
          </g>
          <g id="Group_27" data-name="Group 27" transform="translate(30.521 43.498)">
            <circle id="Ellipse_21" data-name="Ellipse 21" cx="0.741" cy="0.741" r="0.741" fill="#fff"/>
          </g>
          <g id="Group_28" data-name="Group 28" transform="translate(40.813 20.645)">
            <circle id="Ellipse_22" data-name="Ellipse 22" cx="0.741" cy="0.741" r="0.741" fill="#fff"/>
          </g>
          <g id="Group_29" data-name="Group 29" transform="translate(46.332 26.868)">
            <circle id="Ellipse_23" data-name="Ellipse 23" cx="0.741" cy="0.741" r="0.741" fill="#fff"/>
          </g>
          <g id="Group_30" data-name="Group 30" transform="translate(47.628 34.566)">
            <circle id="Ellipse_24" data-name="Ellipse 24" cx="0.741" cy="0.741" r="0.741" fill="#fff"/>
          </g>
          <g id="Group_31" data-name="Group 31" transform="translate(41.194 15.691)">
            <circle id="Ellipse_25" data-name="Ellipse 25" cx="0.741" cy="0.741" r="0.741" fill="#fff"/>
          </g>
          <g id="Group_32" data-name="Group 32" transform="translate(48.838 20.304)">
            <circle id="Ellipse_26" data-name="Ellipse 26" cx="0.741" cy="0.741" r="0.741" fill="#fff"/>
          </g>
          <g id="Group_33" data-name="Group 33" transform="translate(43.994 13.187)">
            <circle id="Ellipse_27" data-name="Ellipse 27" cx="0.741" cy="0.741" r="0.741" fill="#fff"/>
          </g>
          <g id="Group_34" data-name="Group 34" transform="translate(40.669 9.703)">
            <circle id="Ellipse_28" data-name="Ellipse 28" cx="0.741" cy="0.741" r="0.741" fill="#fff"/>
          </g>
          <g id="Group_35" data-name="Group 35" transform="translate(22.271)">
            <circle id="Ellipse_29" data-name="Ellipse 29" cx="0.741" cy="0.741" r="0.741" transform="translate(0)" fill="#fff"/>
          </g>
          <g id="Group_36" data-name="Group 36" transform="translate(26.631 7.991)">
            <circle id="Ellipse_30" data-name="Ellipse 30" cx="0.741" cy="0.741" r="0.741" fill="#fff"/>
          </g>
          <g id="Group_37" data-name="Group 37" transform="translate(36.261 4.213)">
            <circle id="Ellipse_31" data-name="Ellipse 31" cx="0.741" cy="0.741" r="0.741" fill="#fff"/>
          </g>
          <g id="Group_38" data-name="Group 38" transform="translate(27.393 2.349)">
            <circle id="Ellipse_32" data-name="Ellipse 32" cx="0.741" cy="0.741" r="0.741" fill="#fff"/>
          </g>
          <g id="Group_39" data-name="Group 39" transform="translate(14.51 7.458)">
            <circle id="Ellipse_33" data-name="Ellipse 33" cx="0.741" cy="0.741" r="0.741" fill="#fff"/>
          </g>
          <g id="Group_40" data-name="Group 40" transform="translate(21.218 5.042)">
            <circle id="Ellipse_34" data-name="Ellipse 34" cx="0.741" cy="0.741" r="0.741" transform="translate(0)" fill="#fff"/>
          </g>
          <g id="Group_41" data-name="Group 41" transform="translate(4.986 14.651)">
            <circle id="Ellipse_35" data-name="Ellipse 35" cx="0.741" cy="0.741" r="0.741" fill="#fff"/>
          </g>
          <g id="Group_42" data-name="Group 42" transform="translate(31.934 7.018)">
            <circle id="Ellipse_36" data-name="Ellipse 36" cx="0.741" cy="0.741" r="0.741" fill="#fff"/>
          </g>
          <g id="Group_43" data-name="Group 43" transform="translate(36.776 9.196)">
            <circle id="Ellipse_37" data-name="Ellipse 37" cx="0.741" cy="0.741" r="0.741" fill="#fff"/>
          </g>
          <g id="Group_44" data-name="Group 44" transform="translate(36.595 13.681)">
            <circle id="Ellipse_38" data-name="Ellipse 38" cx="0.741" cy="0.741" r="0.741" fill="#fff"/>
          </g>
          <g id="Group_45" data-name="Group 45" transform="translate(34.96 44.852)">
            <circle id="Ellipse_39" data-name="Ellipse 39" cx="0.741" cy="0.741" r="0.741" fill="#fff"/>
          </g>
          <g id="Group_46" data-name="Group 46" transform="translate(32.883 48.932)">
            <circle id="Ellipse_40" data-name="Ellipse 40" cx="0.741" cy="0.741" r="0.741" fill="#fff"/>
          </g>
          <g id="Group_47" data-name="Group 47" transform="translate(37.611 40.925)">
            <circle id="Ellipse_41" data-name="Ellipse 41" cx="0.741" cy="0.741" r="0.741" fill="#fff"/>
          </g>
          <g id="Group_48" data-name="Group 48" transform="translate(43.023 40.24)">
            <circle id="Ellipse_42" data-name="Ellipse 42" cx="0.741" cy="0.741" r="0.741" fill="#fff"/>
          </g>
          <g id="Group_49" data-name="Group 49" transform="translate(41.498 36.045)">
            <circle id="Ellipse_43" data-name="Ellipse 43" cx="0.741" cy="0.741" r="0.741" fill="#fff"/>
          </g>
          <g id="Group_50" data-name="Group 50" transform="translate(44.81 18.893)">
            <circle id="Ellipse_44" data-name="Ellipse 44" cx="0.741" cy="0.741" r="0.741" fill="#fff"/>
          </g>
          <g id="Group_51" data-name="Group 51" transform="translate(43.447 25.666)">
            <circle id="Ellipse_45" data-name="Ellipse 45" cx="0.741" cy="0.741" r="0.741" fill="#fff"/>
          </g>
          <g id="Group_52" data-name="Group 52" transform="translate(25.02 45.975)">
            <circle id="Ellipse_46" data-name="Ellipse 46" cx="0.741" cy="0.741" r="0.741" fill="#fff"/>
          </g>
        </g>
      </g>
    </g>
  </g>
</svg>
