<svg xmlns="http://www.w3.org/2000/svg" width="28.05" height="28.091" viewBox="0 0 28.05 28.091">
  <path id="Path_14" data-name="Path 14" d="M75.64,112.027A14.051,14.051,0,0,1,89.7,97.97a12.982,12.982,0,0,1,2.127.162,1.183,1.183,0,0,1,.994.9,1.222,1.222,0,0,1-.439,1.249,7.621,7.621,0,1,0,9.364,12.023,1.193,1.193,0,0,1,1.318-.116,1.223,1.223,0,0,1,.624,1.179,14.056,14.056,0,0,1-28.045-1.341Zm13.225-11.606a11.632,11.632,0,1,0,11.861,15.259,10.013,10.013,0,0,1-11.861-15.259Z" transform="translate(-75.64 -97.97)" fill="#fff" fill-rule="evenodd"/>
</svg>
