<svg id="Group_54" data-name="Group 54" xmlns="http://www.w3.org/2000/svg" width="33.359" height="33.749" viewBox="0 0 33.359 33.749">
  <g id="Group_6" data-name="Group 6" transform="translate(1.405 1.776)">
    <g id="Group_2" data-name="Group 2" transform="translate(0.426 1.34)">
      <path id="Path_7" data-name="Path 7" d="M61.646,61.093A14.216,14.216,0,1,1,75.863,46.876,14.232,14.232,0,0,1,61.646,61.093Zm0-28.325A14.108,14.108,0,1,0,75.755,46.876,14.125,14.125,0,0,0,61.646,32.768Z" transform="translate(-47.43 -32.66)" fill="#30c5f4"/>
    </g>
    <g id="Group_3" data-name="Group 3" transform="translate(2.34 1.914)">
      <path id="Path_8" data-name="Path 8" d="M72.474,64.341A14.215,14.215,0,1,1,86.691,50.126,14.23,14.23,0,0,1,72.474,64.341Zm0-28.323A14.108,14.108,0,1,0,86.583,50.126,14.125,14.125,0,0,0,72.474,36.018Z" transform="translate(-58.26 -35.91)" fill="#30c5f4"/>
    </g>
    <g id="Group_4" data-name="Group 4" transform="translate(0.935)">
      <path id="Path_9" data-name="Path 9" d="M64.526,53.513A14.216,14.216,0,1,1,78.743,39.3,14.232,14.232,0,0,1,64.526,53.513Zm0-28.325A14.108,14.108,0,1,0,78.635,39.3,14.125,14.125,0,0,0,64.526,25.188Z" transform="translate(-50.31 -25.08)" fill="#30c5f4"/>
    </g>
    <g id="Group_5" data-name="Group 5" transform="translate(0 3.061)">
      <path id="Path_10" data-name="Path 10" d="M59.236,70.833A14.216,14.216,0,1,1,73.453,56.616,14.232,14.232,0,0,1,59.236,70.833Zm0-28.323A14.108,14.108,0,1,0,73.345,56.618,14.125,14.125,0,0,0,59.236,42.51Z" transform="translate(-45.02 -42.4)" fill="#30c5f4"/>
    </g>
  </g>
  <g id="Group_53" data-name="Group 53">
    <g id="Group_7" data-name="Group 7" transform="translate(3.648 15.072)">
      <circle id="Ellipse_1" data-name="Ellipse 1" cx="0.491" cy="0.491" r="0.491" fill="#30c5f4"/>
    </g>
    <g id="Group_8" data-name="Group 8" transform="translate(6.568 3.927)">
      <circle id="Ellipse_2" data-name="Ellipse 2" cx="0.491" cy="0.491" r="0.491" fill="#30c5f4"/>
    </g>
    <g id="Group_9" data-name="Group 9" transform="translate(14.149 5.218)">
      <circle id="Ellipse_3" data-name="Ellipse 3" cx="0.491" cy="0.491" r="0.491" fill="#30c5f4"/>
    </g>
    <g id="Group_10" data-name="Group 10" transform="translate(10.89 2.563)">
      <circle id="Ellipse_4" data-name="Ellipse 4" cx="0.491" cy="0.491" r="0.491" fill="#30c5f4"/>
    </g>
    <g id="Group_11" data-name="Group 11" transform="translate(6.568 7.113)">
      <circle id="Ellipse_5" data-name="Ellipse 5" cx="0.491" cy="0.491" r="0.491" transform="translate(0 0)" fill="#30c5f4"/>
    </g>
    <g id="Group_12" data-name="Group 12" transform="translate(0 18.566)">
      <circle id="Ellipse_6" data-name="Ellipse 6" cx="0.491" cy="0.491" r="0.491" fill="#30c5f4"/>
    </g>
    <g id="Group_13" data-name="Group 13" transform="translate(2.165 19.123)">
      <circle id="Ellipse_7" data-name="Ellipse 7" cx="0.491" cy="0.491" r="0.491" fill="#30c5f4"/>
    </g>
    <g id="Group_14" data-name="Group 14" transform="translate(1.28 12.406)">
      <circle id="Ellipse_8" data-name="Ellipse 8" cx="0.491" cy="0.491" r="0.491" fill="#30c5f4"/>
    </g>
    <g id="Group_15" data-name="Group 15" transform="translate(6.738 26.423)">
      <circle id="Ellipse_9" data-name="Ellipse 9" cx="0.491" cy="0.491" r="0.491" fill="#30c5f4"/>
    </g>
    <g id="Group_16" data-name="Group 16" transform="translate(2.324 23.754)">
      <circle id="Ellipse_10" data-name="Ellipse 10" cx="0.491" cy="0.491" r="0.491" fill="#30c5f4"/>
    </g>
    <g id="Group_17" data-name="Group 17" transform="translate(6.017 10.552)">
      <circle id="Ellipse_11" data-name="Ellipse 11" cx="0.491" cy="0.491" r="0.491" fill="#30c5f4"/>
    </g>
    <g id="Group_18" data-name="Group 18" transform="translate(18.317 32.767)">
      <circle id="Ellipse_12" data-name="Ellipse 12" cx="0.491" cy="0.491" r="0.491" fill="#30c5f4"/>
    </g>
    <g id="Group_19" data-name="Group 19" transform="translate(5.527 28.797)">
      <circle id="Ellipse_13" data-name="Ellipse 13" cx="0.491" cy="0.491" r="0.491" fill="#30c5f4"/>
    </g>
    <g id="Group_20" data-name="Group 20" transform="translate(2.34 27.013)">
      <circle id="Ellipse_14" data-name="Ellipse 14" cx="0.491" cy="0.491" r="0.491" fill="#30c5f4"/>
    </g>
    <g id="Group_21" data-name="Group 21" transform="translate(4.615 22.076)">
      <circle id="Ellipse_15" data-name="Ellipse 15" cx="0.491" cy="0.491" r="0.491" fill="#30c5f4"/>
    </g>
    <g id="Group_22" data-name="Group 22" transform="translate(26.334 29.633)">
      <circle id="Ellipse_16" data-name="Ellipse 16" cx="0.491" cy="0.491" r="0.491" fill="#30c5f4"/>
    </g>
    <g id="Group_23" data-name="Group 23" transform="translate(8.062 30.131)">
      <circle id="Ellipse_17" data-name="Ellipse 17" cx="0.491" cy="0.491" r="0.491" fill="#30c5f4"/>
    </g>
    <g id="Group_24" data-name="Group 24" transform="translate(12.947 32.15)">
      <circle id="Ellipse_18" data-name="Ellipse 18" cx="0.491" cy="0.491" r="0.491" fill="#30c5f4"/>
    </g>
    <g id="Group_25" data-name="Group 25" transform="translate(15.418 28.751)">
      <circle id="Ellipse_19" data-name="Ellipse 19" cx="0.491" cy="0.491" r="0.491" fill="#30c5f4"/>
    </g>
    <g id="Group_26" data-name="Group 26" transform="translate(12.099 28.91)">
      <circle id="Ellipse_20" data-name="Ellipse 20" cx="0.491" cy="0.491" r="0.491" transform="translate(0)" fill="#30c5f4"/>
    </g>
    <g id="Group_27" data-name="Group 27" transform="translate(20.233 28.836)">
      <circle id="Ellipse_21" data-name="Ellipse 21" cx="0.491" cy="0.491" r="0.491" fill="#30c5f4"/>
    </g>
    <g id="Group_28" data-name="Group 28" transform="translate(27.056 13.686)">
      <circle id="Ellipse_22" data-name="Ellipse 22" cx="0.491" cy="0.491" r="0.491" fill="#30c5f4"/>
    </g>
    <g id="Group_29" data-name="Group 29" transform="translate(30.714 17.811)">
      <circle id="Ellipse_23" data-name="Ellipse 23" cx="0.491" cy="0.491" r="0.491" fill="#30c5f4"/>
    </g>
    <g id="Group_30" data-name="Group 30" transform="translate(31.573 22.914)">
      <circle id="Ellipse_24" data-name="Ellipse 24" cx="0.491" cy="0.491" r="0.491" fill="#30c5f4"/>
    </g>
    <g id="Group_31" data-name="Group 31" transform="translate(27.308 10.402)">
      <circle id="Ellipse_25" data-name="Ellipse 25" cx="0.491" cy="0.491" r="0.491" fill="#30c5f4"/>
    </g>
    <g id="Group_32" data-name="Group 32" transform="translate(32.376 13.46)">
      <circle id="Ellipse_26" data-name="Ellipse 26" cx="0.491" cy="0.491" r="0.491" fill="#30c5f4"/>
    </g>
    <g id="Group_33" data-name="Group 33" transform="translate(29.164 8.742)">
      <circle id="Ellipse_27" data-name="Ellipse 27" cx="0.491" cy="0.491" r="0.491" fill="#30c5f4"/>
    </g>
    <g id="Group_34" data-name="Group 34" transform="translate(26.96 6.432)">
      <circle id="Ellipse_28" data-name="Ellipse 28" cx="0.491" cy="0.491" r="0.491" fill="#30c5f4"/>
    </g>
    <g id="Group_35" data-name="Group 35" transform="translate(14.764)">
      <circle id="Ellipse_29" data-name="Ellipse 29" cx="0.491" cy="0.491" r="0.491" transform="translate(0)" fill="#30c5f4"/>
    </g>
    <g id="Group_36" data-name="Group 36" transform="translate(17.654 5.297)">
      <circle id="Ellipse_30" data-name="Ellipse 30" cx="0.491" cy="0.491" r="0.491" fill="#30c5f4"/>
    </g>
    <g id="Group_37" data-name="Group 37" transform="translate(24.038 2.793)">
      <circle id="Ellipse_31" data-name="Ellipse 31" cx="0.491" cy="0.491" r="0.491" fill="#30c5f4"/>
    </g>
    <g id="Group_38" data-name="Group 38" transform="translate(18.16 1.557)">
      <circle id="Ellipse_32" data-name="Ellipse 32" cx="0.491" cy="0.491" r="0.491" fill="#30c5f4"/>
    </g>
    <g id="Group_39" data-name="Group 39" transform="translate(9.619 4.944)">
      <circle id="Ellipse_33" data-name="Ellipse 33" cx="0.491" cy="0.491" r="0.491" fill="#30c5f4"/>
    </g>
    <g id="Group_40" data-name="Group 40" transform="translate(14.066 3.342)">
      <circle id="Ellipse_34" data-name="Ellipse 34" cx="0.491" cy="0.491" r="0.491" transform="translate(0)" fill="#30c5f4"/>
    </g>
    <g id="Group_41" data-name="Group 41" transform="translate(3.305 9.713)">
      <circle id="Ellipse_35" data-name="Ellipse 35" cx="0.491" cy="0.491" r="0.491" fill="#30c5f4"/>
    </g>
    <g id="Group_42" data-name="Group 42" transform="translate(21.17 4.652)">
      <circle id="Ellipse_36" data-name="Ellipse 36" cx="0.491" cy="0.491" r="0.491" fill="#30c5f4"/>
    </g>
    <g id="Group_43" data-name="Group 43" transform="translate(24.38 6.096)">
      <circle id="Ellipse_37" data-name="Ellipse 37" cx="0.491" cy="0.491" r="0.491" fill="#30c5f4"/>
    </g>
    <g id="Group_44" data-name="Group 44" transform="translate(24.259 9.069)">
      <circle id="Ellipse_38" data-name="Ellipse 38" cx="0.491" cy="0.491" r="0.491" fill="#30c5f4"/>
    </g>
    <g id="Group_45" data-name="Group 45" transform="translate(23.176 29.733)">
      <circle id="Ellipse_39" data-name="Ellipse 39" cx="0.491" cy="0.491" r="0.491" fill="#30c5f4"/>
    </g>
    <g id="Group_46" data-name="Group 46" transform="translate(21.799 32.438)">
      <circle id="Ellipse_40" data-name="Ellipse 40" cx="0.491" cy="0.491" r="0.491" fill="#30c5f4"/>
    </g>
    <g id="Group_47" data-name="Group 47" transform="translate(24.933 27.13)">
      <circle id="Ellipse_41" data-name="Ellipse 41" cx="0.491" cy="0.491" r="0.491" fill="#30c5f4"/>
    </g>
    <g id="Group_48" data-name="Group 48" transform="translate(28.521 26.676)">
      <circle id="Ellipse_42" data-name="Ellipse 42" cx="0.491" cy="0.491" r="0.491" fill="#30c5f4"/>
    </g>
    <g id="Group_49" data-name="Group 49" transform="translate(27.51 23.895)">
      <circle id="Ellipse_43" data-name="Ellipse 43" cx="0.491" cy="0.491" r="0.491" fill="#30c5f4"/>
    </g>
    <g id="Group_50" data-name="Group 50" transform="translate(29.705 12.525)">
      <circle id="Ellipse_44" data-name="Ellipse 44" cx="0.491" cy="0.491" r="0.491" fill="#30c5f4"/>
    </g>
    <g id="Group_51" data-name="Group 51" transform="translate(28.802 17.014)">
      <circle id="Ellipse_45" data-name="Ellipse 45" cx="0.491" cy="0.491" r="0.491" fill="#30c5f4"/>
    </g>
    <g id="Group_52" data-name="Group 52" transform="translate(16.587 30.478)">
      <circle id="Ellipse_46" data-name="Ellipse 46" cx="0.491" cy="0.491" r="0.491" fill="#30c5f4"/>
    </g>
  </g>
</svg>
