<svg xmlns="http://www.w3.org/2000/svg" width="34.06" height="34.06" viewBox="0 0 34.06 34.06">
  <g id="Group_76" data-name="Group 76" transform="translate(-1071.232 -1103)">
    <path id="Path_39" data-name="Path 39" d="M133.7,46.668A17.03,17.03,0,1,0,150.73,63.7,17.045,17.045,0,0,0,133.7,46.668Zm0,32.7A15.668,15.668,0,1,1,149.368,63.7,15.688,15.688,0,0,1,133.7,79.366Z" transform="translate(954.562 1056.332)" fill="#30c5f4"/>
    <path id="Path_40" data-name="Path 40" d="M186.582,97.327c-.014-.014-.027-.014-.034-.027a13.6,13.6,0,0,0-19.2,0,.066.066,0,0,0-.034.027c-.014.014-.014.027-.027.034a13.61,13.61,0,0,0-.021,19.183c.007.014.021.021.027.027a.689.689,0,0,0,.947.054.206.206,0,0,0,.054-.054l1.363-1.363a.679.679,0,0,0-.96-.961l-.886.886a12.144,12.144,0,0,1-3.093-7.494h1.246a.681.681,0,1,0,0-1.362h-1.24a12.187,12.187,0,0,1,3.1-7.48l.879.879a.669.669,0,0,0,.484.2.7.7,0,0,0,.484-.2.678.678,0,0,0,0-.961l-.879-.879a12.184,12.184,0,0,1,7.48-3.1v1.24a.681.681,0,1,0,1.362,0v-1.24a12.187,12.187,0,0,1,7.48,3.1l-.879.879a.678.678,0,0,0,0,.961.669.669,0,0,0,.484.2.7.7,0,0,0,.484-.2l.879-.879a12.184,12.184,0,0,1,3.1,7.48h-1.24a.681.681,0,1,0,0,1.362h1.246a12.132,12.132,0,0,1-3.1,7.494l-.886-.886a.679.679,0,0,0-.961.961l1.383,1.383a.682.682,0,0,0,.477.2.66.66,0,0,0,.47-.191.409.409,0,0,1,.054-.054,13.608,13.608,0,0,0-.019-19.183c-.014-.013-.014-.027-.027-.034Z" transform="translate(911.312 1013.071)" fill="#30c5f4"/>
    <path id="Path_41" data-name="Path 41" d="M317.977,175.175v-4.9a.681.681,0,1,0-1.362,0v4.9a2.575,2.575,0,1,0,1.362,0Zm-.681,3.685a1.213,1.213,0,1,1,1.212-1.213A1.215,1.215,0,0,1,317.3,178.86Z" transform="translate(770.966 942.383)" fill="#30c5f4"/>
  </g>
</svg>
