<svg xmlns="http://www.w3.org/2000/svg" width="1158" height="44" viewBox="0 0 1158 44">
  <g id="Group_119" data-name="Group 119" transform="translate(-77 -1287)">
    <g id="Group_113" data-name="Group 113">
      <rect id="Rectangle_30" data-name="Rectangle 30" width="168" height="43" rx="10" transform="translate(77 1287)" fill="#4aa4dc"/>
      <g id="Group_106" data-name="Group 106" transform="translate(36.876 -36)">
        <g id="Group_97" data-name="Group 97" transform="translate(-843 -355.114)">
          <path id="Path_83" data-name="Path 83" d="M140.574,114.11h-20.72a1.624,1.624,0,0,0-1.622,1.621V129.64a1.624,1.624,0,0,0,1.622,1.622h20.72a1.624,1.624,0,0,0,1.622-1.622V115.731a1.624,1.624,0,0,0-1.622-1.621Zm1.089,15.53a1.09,1.09,0,0,1-1.089,1.089h-20.72a1.09,1.09,0,0,1-1.089-1.089v-11.9h22.9Zm-1.089-15a1.09,1.09,0,0,1,1.089,1.088v1.477h-22.9v-1.477a1.09,1.09,0,0,1,1.089-1.089Z" transform="translate(788.891 1577.89)" fill="#fff"/>
          <path id="Path_84" data-name="Path 84" d="M502.856,133.291a.92.92,0,1,0-.649-.27.918.918,0,0,0,.649.27Zm0-1.306a.387.387,0,1,1-.386.387A.387.387,0,0,1,502.856,131.986Z" transform="translate(425.023 1561.443)" fill="#fff"/>
          <path id="Path_85" data-name="Path 85" d="M444.476,133.291a.92.92,0,1,0-.649-.269A.919.919,0,0,0,444.476,133.291Zm0-1.306a.387.387,0,1,1-.386.387A.387.387,0,0,1,444.476,131.986Z" transform="translate(480.385 1561.443)" fill="#fff"/>
          <path id="Path_86" data-name="Path 86" d="M386.106,133.291a.92.92,0,1,0-.649-.269.919.919,0,0,0,.649.269Zm0-1.306a.387.387,0,1,1-.386.387A.387.387,0,0,1,386.106,131.986Z" transform="translate(535.737 1561.443)" fill="#fff"/>
          <path id="Path_87" data-name="Path 87" d="M181.054,281.762H193.28a.266.266,0,0,0,0-.533H181.054a.266.266,0,1,0,0,.533Z" transform="translate(729.57 1419.41)" fill="#fff"/>
          <path id="Path_88" data-name="Path 88" d="M181.054,313.648H193.28a.266.266,0,0,0,0-.533H181.054a.266.266,0,0,0,0,.533Z" transform="translate(729.57 1389.172)" fill="#fff"/>
          <path id="Path_89" data-name="Path 89" d="M181.054,345.558h6.113a.266.266,0,1,0,0-.533h-6.113a.266.266,0,0,0,0,.533Z" transform="translate(729.57 1358.912)" fill="#fff"/>
          <path id="Path_90" data-name="Path 90" d="M181.054,249.862H189.9a.266.266,0,1,0,0-.533h-8.843a.266.266,0,1,0,0,.533Z" transform="translate(729.57 1449.661)" fill="#fff"/>
          <path id="Path_91" data-name="Path 91" d="M475.709,288a.319.319,0,0,0,.193.226.313.313,0,0,0,.12.024.324.324,0,0,0,.178-.057l.735-.491.33.493h0a.267.267,0,0,0,.222.119.264.264,0,0,0,.148-.045.266.266,0,0,0,.074-.369l-.33-.493.735-.491h0a.321.321,0,0,0,.006-.53l-2.588-1.8a.321.321,0,0,0-.5.332Zm1.85-1.35-.477.319-.443.3-.477.318-.493-2.249Z" transform="translate(450.541 1416.283)" fill="#fff"/>
        </g>
        <text id="Website" transform="translate(102 1352)" fill="#fff" font-size="20" font-family="Poppins-Medium, Poppins" font-weight="500"><tspan x="0" y="0">Website</tspan></text>
      </g>
    </g>
    <g id="Group_118" data-name="Group 118" transform="translate(-1)">
      <g id="Group_104" data-name="Group 104" transform="translate(40.9 -36)">
        <text id="Twitter" transform="translate(299 1352)" fill="#7f7f98" font-size="20" font-family="Poppins-Medium, Poppins" font-weight="500"><tspan x="0" y="0">Twitter</tspan></text>
        <g id="XMLID_826_" transform="translate(259.102 1305.735)">
          <path id="XMLID_827_" d="M25.312,30.544A9.818,9.818,0,0,1,24.059,31a5.537,5.537,0,0,0,1.127-1.983.418.418,0,0,0-.611-.487,9.859,9.859,0,0,1-2.914,1.152,5.563,5.563,0,0,0-9.452,3.974,5.672,5.672,0,0,0,.046.718,14.235,14.235,0,0,1-9.77-5.183.418.418,0,0,0-.685.054,5.568,5.568,0,0,0,.57,6.4,4.71,4.71,0,0,1-.744-.332.418.418,0,0,0-.621.356c0,.025,0,.049,0,.074a5.58,5.58,0,0,0,2.722,4.782c-.141-.014-.283-.035-.423-.061A.418.418,0,0,0,2.827,41,5.558,5.558,0,0,0,6.9,44.728a9.837,9.837,0,0,1-5.258,1.5A10.059,10.059,0,0,1,.465,46.16a.418.418,0,0,0-.275.767A15,15,0,0,0,8.3,49.3a14.425,14.425,0,0,0,11.176-4.909,15.559,15.559,0,0,0,3.873-10.14c0-.153,0-.307-.007-.46a10.809,10.809,0,0,0,2.488-2.635.418.418,0,0,0-.517-.614Z" transform="translate(0 0)" fill="none" stroke="#30c5f4" stroke-width="1"/>
        </g>
      </g>
      <g id="Path_126" data-name="Path 126" transform="translate(270 1287)" fill="none">
        <path d="M10,0H158a10,10,0,0,1,10,10V33a10,10,0,0,1-10,10H10A10,10,0,0,1,0,33V10A10,10,0,0,1,10,0Z" stroke="none"/>
        <path d="M 10 1 C 5.037384033203125 1 1 5.037391662597656 1 10 L 1 33 C 1 37.96260833740234 5.037384033203125 42 10 42 L 158 42 C 162.9626159667969 42 167 37.96260833740234 167 33 L 167 10 C 167 5.037391662597656 162.9626159667969 1 158 1 L 10 1 M 10 0 L 158 0 C 163.5228424072266 0 168 4.477153778076172 168 10 L 168 33 C 168 38.52284622192383 163.5228424072266 43 158 43 L 10 43 C 4.477157592773438 43 0 38.52284622192383 0 33 L 0 10 C 0 4.477153778076172 4.477157592773438 0 10 0 Z" stroke="none" fill="#4aa4dc"/>
      </g>
    </g>
    <g id="Group_117" data-name="Group 117">
      <g id="Group_102" data-name="Group 102" transform="translate(42.428 -36)">
        <text id="Github" transform="translate(486 1352)" fill="#7f7f98" font-size="20" font-family="Poppins-Medium, Poppins" font-weight="500"><tspan x="0" y="0">Github</tspan></text>
        <path id="Path_95" data-name="Path 95" d="M33.091,21.864A7.272,7.272,0,0,0,31.256,16.9a4.146,4.146,0,0,0,.322-1.135,5.658,5.658,0,0,0-.176-2.37,8.677,8.677,0,0,0-.325-1.084,4.022,4.022,0,0,0-1.476.149,9.466,9.466,0,0,0-2.1.908c-.393.234-.788.491-1.1.7a17.26,17.26,0,0,0-8.748,0c-.314-.209-.712-.467-1.107-.7a9.466,9.466,0,0,0-2.1-.908,4.022,4.022,0,0,0-1.476-.149,8.677,8.677,0,0,0-.325,1.084,5.658,5.658,0,0,0-.176,2.37,4.118,4.118,0,0,0,.331,1.155A7.29,7.29,0,0,0,11,21.863c0,5.186,2.8,7.554,7.906,8.178a4.309,4.309,0,0,0-1.129,2.333,4.46,4.46,0,0,1-1.094.342,4.226,4.226,0,0,1-2.456-.289,5.709,5.709,0,0,1-1.5-1.572,4.19,4.19,0,0,0-1.372-1.372,3.188,3.188,0,0,0-1.589-.343c-.343.055-.505.307-.433.488a1.964,1.964,0,0,0,.777.65,4.149,4.149,0,0,1,1.246,1.264,12,12,0,0,1,.74,1.589A4.243,4.243,0,0,0,13.576,34.5a5.709,5.709,0,0,0,2.33.47,13.89,13.89,0,0,0,1.806-.179v3.251a.889.889,0,0,1-1.032.878,17.284,17.284,0,0,0,10.73,0,.89.89,0,0,1-1.032-.879V33.015a4.308,4.308,0,0,0-1.19-2.969C30.256,29.437,33.091,27.126,33.091,21.864ZM10.983,30.006c-.133-.068-.205-.2-.16-.284s.191-.106.324-.037.205.2.16.284S11.116,30.075,10.983,30.006Zm1.051.654c-.07.076-.221.052-.337-.054s-.153-.254-.083-.33.221-.052.337.054S12.1,30.584,12.033,30.661Zm.654,1.084c-.088.062-.238,0-.335-.13s-.1-.295-.014-.357.238,0,.335.13S12.775,31.682,12.687,31.744Zm.939.816c-.06.1-.23.1-.379.01s-.222-.244-.162-.341.23-.1.379-.01S13.686,32.463,13.626,32.56Zm.888.8c-.185-.023-.322-.138-.306-.257s.177-.2.361-.175.322.138.306.257S14.7,33.381,14.513,33.358Zm1.431.207c-.2-.011-.35-.124-.342-.251s.173-.221.37-.21.35.124.342.251S16.141,33.577,15.945,33.565ZM17.3,33.43c-.21,0-.38-.109-.38-.244s.17-.244.38-.244.38.109.38.244S17.5,33.43,17.3,33.43Z" transform="translate(441.256 1318.398)" fill="none" stroke="#30c5f4" stroke-width="1"/>
      </g>
      <g id="Rectangle_31" data-name="Rectangle 31" transform="translate(461 1287)" fill="none" stroke="#4aa4dc" stroke-width="1">
        <rect width="168" height="43" rx="10" stroke="none"/>
        <rect x="0.5" y="0.5" width="167" height="42" rx="9.5" fill="none"/>
      </g>
    </g>
    <g id="Group_116" data-name="Group 116" transform="translate(4)">
      <g id="Group_100" data-name="Group 100" transform="translate(36.43 -36)">
        <text id="Discord" transform="translate(676 1352)" fill="#7f7f98" font-size="20" font-family="Poppins-Medium, Poppins" font-weight="500"><tspan x="0" y="0">Discord</tspan></text>
        <path id="Path_96" data-name="Path 96" d="M106.1,40.984V26.842a.35.35,0,0,0-.349-.35H86.15a.351.351,0,0,0-.352.35V40.984a.351.351,0,0,0,.352.35h2.695a.525.525,0,0,1,.525.525v3.29l3.662-3.661a.527.527,0,0,1,.372-.154h12.35a.351.351,0,0,0,.349-.35Zm-.349-15.542H86.15a1.4,1.4,0,0,0-1.4,1.4V40.984a1.4,1.4,0,0,0,1.4,1.4h2.17v4.033h0a.527.527,0,0,0,.325.485.517.517,0,0,0,.2.04.525.525,0,0,0,.372-.154l4.4-4.4h12.134a1.4,1.4,0,0,0,1.4-1.4V26.841a1.4,1.4,0,0,0-1.4-1.4Z" transform="translate(556.82 1308.809)" fill="#30c5f4" fill-rule="evenodd"/>
      </g>
      <g id="Path_127" data-name="Path 127" transform="translate(649 1287)" fill="none">
        <path d="M10,0H158a10,10,0,0,1,10,10V33a10,10,0,0,1-10,10H10A10,10,0,0,1,0,33V10A10,10,0,0,1,10,0Z" stroke="none"/>
        <path d="M 10 1 C 5.037384033203125 1 1 5.037391662597656 1 10 L 1 33 C 1 37.96260833740234 5.037384033203125 42 10 42 L 158 42 C 162.9626159667969 42 167 37.96260833740234 167 33 L 167 10 C 167 5.037391662597656 162.9626159667969 1 158 1 L 10 1 M 10 0 L 158 0 C 163.5228424072266 0 168 4.477153778076172 168 10 L 168 33 C 168 38.52284622192383 163.5228424072266 43 158 43 L 10 43 C 4.477157592773438 43 0 38.52284622192383 0 33 L 0 10 C 0 4.477153778076172 4.477157592773438 0 10 0 Z" stroke="none" fill="#4aa4dc"/>
      </g>
    </g>
    <g id="Group_115" data-name="Group 115" transform="translate(2)">
      <g id="Group_98" data-name="Group 98" transform="translate(33 -36)">
        <text id="Telegram" transform="translate(863 1352)" fill="#7f7f98" font-size="20" font-family="Poppins-Medium, Poppins" font-weight="500"><tspan x="0" y="0">Telegram</tspan></text>
        <path id="telegram-logo-thin-svgrepo-com" d="M47.125,32.182a1.339,1.339,0,0,0-1.367-.232L25.111,40.061a1.342,1.342,0,0,0,.228,2.566l5.6,1.121v6.918a1.322,1.322,0,0,0,.829,1.24,1.362,1.362,0,0,0,.522.106,1.324,1.324,0,0,0,.941-.4l3.2-3.2,4.721,4.154a1.331,1.331,0,0,0,.883.336,1.355,1.355,0,0,0,.416-.066,1.331,1.331,0,0,0,.9-.978L47.558,33.5A1.339,1.339,0,0,0,47.125,32.182ZM25.156,41.35a.432.432,0,0,1,.282-.456l18.927-7.436L31.286,42.9l-5.773-1.155A.433.433,0,0,1,25.156,41.35ZM32.6,50.982a.447.447,0,0,1-.764-.316V44.371l3.923,3.452ZM46.686,33.3,42.477,51.662a.448.448,0,0,1-.732.236l-9.639-8.482L46.613,32.939A.426.426,0,0,1,46.686,33.3Z" transform="translate(803.741 1302.394)" fill="#30c5f4"/>
      </g>
      <g id="Path_128" data-name="Path 128" transform="translate(843 1287)" fill="none">
        <path d="M10,0H158a10,10,0,0,1,10,10V33a10,10,0,0,1-10,10H10A10,10,0,0,1,0,33V10A10,10,0,0,1,10,0Z" stroke="none"/>
        <path d="M 10 1 C 5.037384033203125 1 1 5.037391662597656 1 10 L 1 33 C 1 37.96260833740234 5.037384033203125 42 10 42 L 158 42 C 162.9626159667969 42 167 37.96260833740234 167 33 L 167 10 C 167 5.037391662597656 162.9626159667969 1 158 1 L 10 1 M 10 0 L 158 0 C 163.5228424072266 0 168 4.477153778076172 168 10 L 168 33 C 168 38.52284622192383 163.5228424072266 43 158 43 L 10 43 C 4.477157592773438 43 0 38.52284622192383 0 33 L 0 10 C 0 4.477153778076172 4.477157592773438 0 10 0 Z" stroke="none" fill="#4aa4dc"/>
      </g>
    </g>
    <g id="Group_114" data-name="Group 114">
      <g id="Group_108" data-name="Group 108" transform="translate(31 -36)">
        <path id="Path_97" data-name="Path 97" d="M112.572,165.8a.824.824,0,0,0,.5-.206l8.231-7.408a.826.826,0,1,0-1.106-1.228l-7.678,6.913-7.678-6.913a.826.826,0,1,0-1.106,1.228l8.231,7.408a.823.823,0,0,0,.611.206Z" transform="translate(1072.427 1186.256)" fill="#4aa4dc"/>
        <text id="Block_Explorers" data-name="Block Explorers" transform="translate(1017 1352)" fill="#7f7f98" font-size="20" font-family="Poppins-Medium, Poppins" font-weight="500"><tspan x="0" y="0">Block Explorers</tspan></text>
      </g>
      <g id="Path_129" data-name="Path 129" transform="translate(1037 1287)" fill="none">
        <path d="M10,0H188a10,10,0,0,1,10,10V34a10,10,0,0,1-10,10H10A10,10,0,0,1,0,34V10A10,10,0,0,1,10,0Z" stroke="none"/>
        <path d="M 10 1 C 5.037368774414062 1 1 5.037376403808594 1 10 L 1 34 C 1 38.96262359619141 5.037368774414062 43 10 43 L 188 43 C 192.9626312255859 43 197 38.96262359619141 197 34 L 197 10 C 197 5.037376403808594 192.9626312255859 1 188 1 L 10 1 M 10 0 L 188 0 C 193.5228576660156 0 198 4.477149963378906 198 10 L 198 34 C 198 39.52285003662109 193.5228576660156 44 188 44 L 10 44 C 4.477157592773438 44 0 39.52285003662109 0 34 L 0 10 C 0 4.477149963378906 4.477157592773438 0 10 0 Z" stroke="none" fill="#4aa4dc"/>
      </g>
    </g>
  </g>
</svg>
