<svg xmlns="http://www.w3.org/2000/svg" width="48.372" height="38.28" viewBox="0 0 48.372 38.28">
  <g id="Group_708" data-name="Group 708" transform="translate(-13747.506 683.587)">
    <path id="Path_259" data-name="Path 259" d="M185.574,118.994c-7.415-1-15.187-.713-22.673-.428a199.093,199.093,0,0,0-22.53,2.21c-2.21.357-1.711,4.207.57,3.993,7.273-.784,14.616-1.284,21.96-1.426,7.344-.214,14.688.5,22.032.428,2.638,0,3.422-4.349.641-4.777Z" transform="translate(13608.558 -801.884)" fill="#b233f7"/>
    <path id="Path_260" data-name="Path 260" d="M185.574,256.224c-7.415-1-15.187-.713-22.673-.428a199.089,199.089,0,0,0-22.53,2.21c-2.21.357-1.711,4.207.57,3.993,7.273-.784,14.616-1.284,21.96-1.426s14.688.5,22.031.5c2.638-.072,3.422-4.492.642-4.849Z" transform="translate(13608.558 -923.214)" fill="#b233f7"/>
    <path id="Path_261" data-name="Path 261" d="M185.574,393.454c-7.415-1-15.187-.713-22.673-.428a199.082,199.082,0,0,0-22.53,2.21c-2.21.357-1.711,4.207.57,3.993,7.273-.784,14.616-1.284,21.96-1.426s14.688.5,22.031.5c2.638-.143,3.422-4.492.642-4.849Z" transform="translate(13608.558 -1044.545)" fill="#b233f7"/>
  </g>
</svg>
