<svg xmlns="http://www.w3.org/2000/svg" width="23.333" height="21.05" viewBox="0 0 23.333 21.05">
  <path id="telegram-logo-thin-svgrepo-com" d="M47.125,32.182a1.339,1.339,0,0,0-1.367-.232L25.111,40.061a1.342,1.342,0,0,0,.228,2.566l5.6,1.121v6.918a1.322,1.322,0,0,0,.829,1.24,1.362,1.362,0,0,0,.522.106,1.324,1.324,0,0,0,.941-.4l3.2-3.2,4.721,4.154a1.331,1.331,0,0,0,.883.336,1.355,1.355,0,0,0,.416-.066,1.331,1.331,0,0,0,.9-.978L47.558,33.5A1.339,1.339,0,0,0,47.125,32.182ZM25.156,41.35a.432.432,0,0,1,.282-.456l18.927-7.436L31.286,42.9l-5.773-1.155A.433.433,0,0,1,25.156,41.35ZM32.6,50.982a.447.447,0,0,1-.764-.316V44.371l3.923,3.452ZM46.686,33.3,42.477,51.662a.448.448,0,0,1-.732.236l-9.639-8.482L46.613,32.939A.426.426,0,0,1,46.686,33.3Z" transform="translate(-24.259 -31.856)" fill="#30c5f4"/>
</svg>
