<svg xmlns="http://www.w3.org/2000/svg" width="26.94" height="22.206" viewBox="0 0 26.94 22.206">
  <path id="XMLID_827_" d="M25.312,30.544A9.818,9.818,0,0,1,24.059,31a5.537,5.537,0,0,0,1.127-1.983.418.418,0,0,0-.611-.487,9.859,9.859,0,0,1-2.914,1.152,5.563,5.563,0,0,0-9.452,3.974,5.672,5.672,0,0,0,.046.718,14.235,14.235,0,0,1-9.77-5.183.418.418,0,0,0-.685.054,5.568,5.568,0,0,0,.57,6.4,4.71,4.71,0,0,1-.744-.332.418.418,0,0,0-.621.356c0,.025,0,.049,0,.074a5.58,5.58,0,0,0,2.722,4.782c-.141-.014-.283-.035-.423-.061A.418.418,0,0,0,2.827,41,5.558,5.558,0,0,0,6.9,44.728a9.837,9.837,0,0,1-5.258,1.5A10.059,10.059,0,0,1,.465,46.16a.418.418,0,0,0-.275.767A15,15,0,0,0,8.3,49.3a14.425,14.425,0,0,0,11.176-4.909,15.559,15.559,0,0,0,3.873-10.14c0-.153,0-.307-.007-.46a10.809,10.809,0,0,0,2.488-2.635.418.418,0,0,0-.517-.614Z" transform="translate(0.519 -27.597)" fill="none" stroke="#30c5f4" stroke-width="1"/>
</svg>
