<svg xmlns="http://www.w3.org/2000/svg" width="23.963" height="17.152" viewBox="0 0 23.963 17.152">
  <g id="Group_496" data-name="Group 496" transform="translate(-715 801.114)">
    <g id="Group_97" data-name="Group 97" transform="translate(-192.124 -2493.114)">
      <path id="Path_83" data-name="Path 83" d="M140.574,114.11h-20.72a1.624,1.624,0,0,0-1.622,1.621V129.64a1.624,1.624,0,0,0,1.622,1.622h20.72a1.624,1.624,0,0,0,1.622-1.622V115.731a1.624,1.624,0,0,0-1.622-1.621Zm1.089,15.53a1.09,1.09,0,0,1-1.089,1.089h-20.72a1.09,1.09,0,0,1-1.089-1.089v-11.9h22.9Zm-1.089-15a1.09,1.09,0,0,1,1.089,1.088v1.477h-22.9v-1.477a1.09,1.09,0,0,1,1.089-1.089Z" transform="translate(788.891 1577.89)" fill="#4aa4dc"/>
      <path id="Path_84" data-name="Path 84" d="M502.856,133.291a.92.92,0,1,0-.649-.27.918.918,0,0,0,.649.27Zm0-1.306a.387.387,0,1,1-.386.387A.387.387,0,0,1,502.856,131.986Z" transform="translate(425.023 1561.443)" fill="#4aa4dc"/>
      <path id="Path_85" data-name="Path 85" d="M444.476,133.291a.92.92,0,1,0-.649-.269A.919.919,0,0,0,444.476,133.291Zm0-1.306a.387.387,0,1,1-.386.387A.387.387,0,0,1,444.476,131.986Z" transform="translate(480.385 1561.443)" fill="#4aa4dc"/>
      <path id="Path_86" data-name="Path 86" d="M386.106,133.291a.92.92,0,1,0-.649-.269.919.919,0,0,0,.649.269Zm0-1.306a.387.387,0,1,1-.386.387A.387.387,0,0,1,386.106,131.986Z" transform="translate(535.737 1561.443)" fill="#4aa4dc"/>
      <path id="Path_87" data-name="Path 87" d="M181.054,281.762H193.28a.266.266,0,0,0,0-.533H181.054a.266.266,0,1,0,0,.533Z" transform="translate(729.57 1419.41)" fill="#4aa4dc"/>
      <path id="Path_88" data-name="Path 88" d="M181.054,313.648H193.28a.266.266,0,0,0,0-.533H181.054a.266.266,0,0,0,0,.533Z" transform="translate(729.57 1389.172)" fill="#4aa4dc"/>
      <path id="Path_89" data-name="Path 89" d="M181.054,345.558h6.113a.266.266,0,1,0,0-.533h-6.113a.266.266,0,0,0,0,.533Z" transform="translate(729.57 1358.912)" fill="#4aa4dc"/>
      <path id="Path_90" data-name="Path 90" d="M181.054,249.862H189.9a.266.266,0,1,0,0-.533h-8.843a.266.266,0,1,0,0,.533Z" transform="translate(729.57 1449.661)" fill="#4aa4dc"/>
      <path id="Path_91" data-name="Path 91" d="M475.709,288a.319.319,0,0,0,.193.226.313.313,0,0,0,.12.024.324.324,0,0,0,.178-.057l.735-.491.33.493h0a.267.267,0,0,0,.222.119.264.264,0,0,0,.148-.045.266.266,0,0,0,.074-.369l-.33-.493.735-.491h0a.321.321,0,0,0,.006-.53l-2.588-1.8a.321.321,0,0,0-.5.332Zm1.85-1.35-.477.319-.443.3-.477.318-.493-2.249Z" transform="translate(450.541 1416.283)" fill="#4aa4dc"/>
    </g>
  </g>
</svg>
