<svg xmlns="http://www.w3.org/2000/svg" width="19.027" height="11.36" viewBox="0 0 19.027 11.36">
  <path id="Path_133" data-name="Path 133" d="M116.661,134.21c-3-2.982-6.133-4.462-9.284-4.378-4.166.085-7.3,2.813-8.776,4.42a1.922,1.922,0,0,0,0,2.5c1.48,1.607,4.61,4.335,8.776,4.441h.212c3.088,0,6.154-1.48,9.072-4.4a1.893,1.893,0,0,0,0-2.58Zm-9.009,5.71a4.42,4.42,0,1,1,4.42-4.42A4.432,4.432,0,0,1,107.653,139.92Zm0-7.359a2.939,2.939,0,1,0,2.94,2.939A2.933,2.933,0,0,0,107.653,132.561Zm0,4.843a1.909,1.909,0,0,1-1.9-1.9.423.423,0,1,1,.846,0,1.06,1.06,0,0,0,1.057,1.057.423.423,0,1,1,0,.846Z" transform="translate(-98.142 -129.829)" fill="#808099"/>
</svg>
