<svg xmlns="http://www.w3.org/2000/svg" width="15.895" height="14.77" viewBox="0 0 15.895 14.77">
  <g id="Group_705" data-name="Group 705" transform="translate(-72.073 -38.644)">
    <path id="Path_251" data-name="Path 251" d="M119.034,38.787a.492.492,0,0,0-.694,0l-9.494,9.75-3.864-4.966a.493.493,0,1,0-.778.605l4.228,5.414a.492.492,0,0,0,.359.187h.054a.492.492,0,0,0,.354-.148l9.843-10.144a.492.492,0,0,0-.01-.7Z" transform="translate(-31.217)" fill="#fff"/>
    <path id="Path_252" data-name="Path 252" d="M72.565,366.79h9.986a.492.492,0,0,0,.492-.492v-5.64a.492.492,0,1,0-.984,0v5.148h-9v-5.148a.492.492,0,1,0-.984,0v5.64a.492.492,0,0,0,.492.492Z" transform="translate(0 -313.375)" fill="#fff"/>
    <path id="Path_253" data-name="Path 253" d="M214.183,505.086a.492.492,0,1,0,0,.984h2.953a.492.492,0,1,0,0-.984Z" transform="translate(-138.029 -454.624)" fill="#fff"/>
  </g>
</svg>
