<svg xmlns="http://www.w3.org/2000/svg" width="18.036" height="18.036" viewBox="0 0 18.036 18.036">
  <g id="Group_303" data-name="Group 303" transform="translate(-3876.03 806)">
    <path id="Path_172" data-name="Path 172" d="M107.018,28a9.018,9.018,0,1,0,9.018,9.018A9.032,9.032,0,0,0,107.018,28Zm0,16.433a7.415,7.415,0,1,1,7.415-7.415A7.424,7.424,0,0,1,107.018,44.433Z" transform="translate(3778.03 -834)" fill="#808099"/>
    <path id="Path_173" data-name="Path 173" d="M324,117.482a1,1,0,1,1-1-1,1,1,0,0,1,1,1" transform="translate(3562.046 -919.314)" fill="#808099"/>
    <path id="Path_174" data-name="Path 174" d="M328.4,214.48a.8.8,0,0,0-.8.8v6.613a.8.8,0,0,0,1.6,0v-6.613A.791.791,0,0,0,328.4,214.48Z" transform="translate(3556.644 -1013.807)" fill="#808099"/>
  </g>
</svg>
