<svg xmlns="http://www.w3.org/2000/svg" width="30" height="30" viewBox="0 0 30 30">
  <g id="Group_733" data-name="Group 733" transform="translate(-143 -553)">
    <g id="Ellipse_108" data-name="Ellipse 108" transform="translate(143 553)" fill="none" stroke="#ebebeb" stroke-width="1">
      <circle cx="15" cy="15" r="15" stroke="none"/>
      <circle cx="15" cy="15" r="14.5" fill="none"/>
    </g>
    <path id="Path_229" data-name="Path 229" d="M164.309,54.354l-6.8-3.928a.2.2,0,0,0-.2,0l-6.8,3.928a.2.2,0,0,0-.1.17v7.856a.2.2,0,0,0,.1.17l6.8,3.928a.2.2,0,0,0,.2,0l6.8-3.928a.2.2,0,0,0,.1-.17V54.524A.2.2,0,0,0,164.309,54.354Zm-.295,7.913-6.607,3.815L150.8,62.268v-7.63l6.607-3.814,6.607,3.814Zm-6.8-5.958a2.02,2.02,0,0,1,3.031-1.75.2.2,0,0,1-.2.34,1.627,1.627,0,0,0-2.441,1.409v.18a.2.2,0,1,1-.393,0Zm3.975.9a2,2,0,0,1,1.01,1.75.2.2,0,0,1-.393,0,1.628,1.628,0,0,0-2.441-1.409l-1.562.9,1.562.9a2.02,2.02,0,0,1,0,3.5.2.2,0,1,1-.2-.34,1.627,1.627,0,0,0,0-2.819l-1.758-1.015-1.758,1.015a2.02,2.02,0,0,1-3.03-1.75.2.2,0,0,1,.393,0,1.628,1.628,0,0,0,2.441,1.409l1.562-.9-1.562-.9a2.02,2.02,0,0,1,0-3.5.2.2,0,0,1,.2.34,1.627,1.627,0,0,0,0,2.819l1.758,1.015,1.758-1.015a2,2,0,0,1,2.02,0ZM157.6,60.417v.18a2.016,2.016,0,0,1-3.031,1.75.2.2,0,0,1,.2-.34,1.627,1.627,0,0,0,2.441-1.409v-.18a.2.2,0,0,1,.393,0Z" transform="translate(0.592 509.6)"/>
  </g>
</svg>
