<svg xmlns="http://www.w3.org/2000/svg" width="26.115" height="22.775" viewBox="0 0 26.115 22.775">
  <path id="Path_246" data-name="Path 246" d="M163.939,100.6h-4.353V99.514a3.267,3.267,0,0,0-3.264-3.264h-6.529a3.267,3.267,0,0,0-3.264,3.264V100.6h-4.353A2.176,2.176,0,0,0,140,102.779V106.3a2.164,2.164,0,0,0,.495,1.378v9.172a2.218,2.218,0,0,0,2.258,2.171h20.61a2.218,2.218,0,0,0,2.258-2.171v-9.17a2.168,2.168,0,0,0,.5-1.379v-3.526a2.176,2.176,0,0,0-2.176-2.176Zm-16.322-1.088a2.176,2.176,0,0,1,2.176-2.176h6.529a2.176,2.176,0,0,1,2.176,2.176V100.6H157.41V99.514a1.088,1.088,0,0,0-1.088-1.088h-6.529a1.088,1.088,0,0,0-1.088,1.088V100.6h-1.088Zm2.176,1.088V99.514h6.529V100.6Zm-8.705,2.176a1.088,1.088,0,0,1,1.088-1.088h21.763a1.088,1.088,0,0,1,1.088,1.088V106.3a1.083,1.083,0,0,1-.9,1.069l-8.895,1.549v-1.247a.544.544,0,0,0-.544-.544h-3.264a.544.544,0,0,0-.544.544v1.236l-8.889-1.538a1.085,1.085,0,0,1-.9-1.069Zm13.058,5.441v3.809H151.97V108.22Zm9.217,9.717h-20.61a1.13,1.13,0,0,1-1.17-1.083v-8.468c.074.021.146.046.223.059l9.075,1.57v2.557a.544.544,0,0,0,.544.544h3.264a.544.544,0,0,0,.544-.544v-2.545l9.081-1.582h0a2.1,2.1,0,0,0,.218-.058v8.467a1.129,1.129,0,0,1-1.17,1.083Z" transform="translate(-140 -96.25)" fill="#fff"/>
</svg>
