<svg xmlns="http://www.w3.org/2000/svg" width="474" height="41" viewBox="0 0 474 41">
  <g id="Group_706" data-name="Group 706" transform="translate(-1164 -558)">
    <rect id="Rectangle_118" data-name="Rectangle 118" width="6" height="41" transform="translate(1164 558)" fill="#d45857"/>
    <rect id="Rectangle_134" data-name="Rectangle 134" width="6" height="41" transform="translate(1356 558)" fill="#d45857"/>
    <rect id="Rectangle_126" data-name="Rectangle 126" width="6" height="41" transform="translate(1260 558)" fill="#d45857"/>
    <rect id="Rectangle_138" data-name="Rectangle 138" width="6" height="41" transform="translate(1452 558)" fill="#d45857"/>
    <rect id="Rectangle_122" data-name="Rectangle 122" width="6" height="41" transform="translate(1212 558)" fill="#d45857"/>
    <rect id="Rectangle_139" data-name="Rectangle 139" width="6" height="41" transform="translate(1404 558)" fill="#d45857"/>
    <rect id="Rectangle_130" data-name="Rectangle 130" width="6" height="41" transform="translate(1308 558)" fill="#d45857"/>
    <rect id="Rectangle_145" data-name="Rectangle 145" width="6" height="41" transform="translate(1500 558)" fill="#d45857"/>
    <rect id="Rectangle_150" data-name="Rectangle 150" width="6" height="41" transform="translate(1584 558)" fill="#d45857"/>
    <rect id="Rectangle_120" data-name="Rectangle 120" width="6" height="41" transform="translate(1188 558)" fill="#d45857"/>
    <rect id="Rectangle_135" data-name="Rectangle 135" width="6" height="41" transform="translate(1380 558)" fill="#d45857"/>
    <rect id="Rectangle_127" data-name="Rectangle 127" width="6" height="41" transform="translate(1284 558)" fill="#d45857"/>
    <rect id="Rectangle_140" data-name="Rectangle 140" width="6" height="41" transform="translate(1476 558)" fill="#d45857"/>
    <rect id="Rectangle_151" data-name="Rectangle 151" width="6" height="41" transform="translate(1560 558)" fill="#d45857"/>
    <rect id="Rectangle_123" data-name="Rectangle 123" width="6" height="41" transform="translate(1236 558)" fill="#d45857"/>
    <rect id="Rectangle_141" data-name="Rectangle 141" width="6" height="41" transform="translate(1428 558)" fill="#d45857"/>
    <rect id="Rectangle_131" data-name="Rectangle 131" width="6" height="41" transform="translate(1332 558)" fill="#d45857"/>
    <rect id="Rectangle_147" data-name="Rectangle 147" width="6" height="41" transform="translate(1524 558)" fill="#d45857"/>
    <rect id="Rectangle_152" data-name="Rectangle 152" width="6" height="41" transform="translate(1608 558)" fill="#d45857"/>
    <rect id="Rectangle_119" data-name="Rectangle 119" width="6" height="41" transform="translate(1176 558)" fill="#d45857"/>
    <rect id="Rectangle_136" data-name="Rectangle 136" width="6" height="41" transform="translate(1368 558)" fill="#d45857"/>
    <rect id="Rectangle_128" data-name="Rectangle 128" width="6" height="41" transform="translate(1272 558)" fill="#d45857"/>
    <rect id="Rectangle_142" data-name="Rectangle 142" width="6" height="41" transform="translate(1464 558)" fill="#d45857"/>
    <rect id="Rectangle_153" data-name="Rectangle 153" width="6" height="41" transform="translate(1548 558)" fill="#d45857"/>
    <rect id="Rectangle_124" data-name="Rectangle 124" width="6" height="41" transform="translate(1224 558)" fill="#d45857"/>
    <rect id="Rectangle_143" data-name="Rectangle 143" width="6" height="41" transform="translate(1416 558)" fill="#d45857"/>
    <rect id="Rectangle_132" data-name="Rectangle 132" width="6" height="41" transform="translate(1320 558)" fill="#d45857"/>
    <rect id="Rectangle_148" data-name="Rectangle 148" width="6" height="41" transform="translate(1512 558)" fill="#d45857"/>
    <rect id="Rectangle_154" data-name="Rectangle 154" width="6" height="41" transform="translate(1596 558)" fill="#d45857"/>
    <rect id="Rectangle_121" data-name="Rectangle 121" width="6" height="41" transform="translate(1200 558)" fill="#d45857"/>
    <rect id="Rectangle_137" data-name="Rectangle 137" width="6" height="41" transform="translate(1392 558)" fill="#d45857"/>
    <rect id="Rectangle_129" data-name="Rectangle 129" width="6" height="41" transform="translate(1296 558)" fill="#d45857"/>
    <rect id="Rectangle_146" data-name="Rectangle 146" width="6" height="41" transform="translate(1488 558)" fill="#d45857"/>
    <rect id="Rectangle_155" data-name="Rectangle 155" width="6" height="41" transform="translate(1572 558)" fill="#d45857"/>
    <rect id="Rectangle_125" data-name="Rectangle 125" width="6" height="41" transform="translate(1248 558)" fill="#d45857"/>
    <rect id="Rectangle_144" data-name="Rectangle 144" width="6" height="41" transform="translate(1440 558)" fill="#d45857"/>
    <rect id="Rectangle_133" data-name="Rectangle 133" width="6" height="41" transform="translate(1344 558)" fill="#d45857"/>
    <rect id="Rectangle_149" data-name="Rectangle 149" width="6" height="41" transform="translate(1536 558)" fill="#d45857"/>
    <rect id="Rectangle_156" data-name="Rectangle 156" width="6" height="41" transform="translate(1620 558)" fill="#d45857"/>
    <rect id="Rectangle_157" data-name="Rectangle 157" width="6" height="41" transform="translate(1632 558)" fill="#d45857"/>
  </g>
</svg>
