<svg xmlns="http://www.w3.org/2000/svg" width="14.984" height="14.984" viewBox="0 0 14.984 14.984">
  <g id="Group_301" data-name="Group 301" transform="translate(-407.477 -1367.008)">
    <path id="Path_25" data-name="Path 25" d="M90.253,26.505a6.253,6.253,0,1,1,6.253-6.253A6.26,6.26,0,0,1,90.253,26.505Zm0-11.569a5.316,5.316,0,1,0,5.316,5.316A5.322,5.322,0,0,0,90.253,14.937Z" transform="translate(323.477 1353.008)" fill="#fff"/>
    <path id="Path_26" data-name="Path 26" d="M440.664,371.127a.467.467,0,0,1-.331-.137l-4.132-4.132a.468.468,0,0,1,.662-.662l4.132,4.132a.468.468,0,0,1-.331.8Z" transform="translate(-18.671 1010.865)" fill="#fff"/>
  </g>
</svg>
