<svg xmlns="http://www.w3.org/2000/svg" width="19.481" height="15.265" viewBox="0 0 19.481 15.265">
  <g id="Group_706" data-name="Group 706" transform="translate(0 -7.178)">
    <path id="Path_254" data-name="Path 254" d="M2.8,393.97v4.114H0v-2.7l2.8-1.808Zm-.433,3.681v-3.284L.433,395.616v2.036Z" transform="translate(0 -375.642)" fill="#23a15f"/>
    <path id="Path_255" data-name="Path 255" d="M152.682,297.286v6.8h-2.8V298.7l2.8-1.808Zm-.433,6.372v-5.975l-1.936,1.249v4.726Z" transform="translate(-145.709 -281.648)" fill="#23a15f"/>
    <path id="Path_256" data-name="Path 256" d="M302.452,200.73v9.493h-2.8v-8.082l2.8-1.808Zm-.433,9.06v-8.663l-1.936,1.249v7.414Z" transform="translate(-291.311 -187.78)" fill="#23a15f"/>
    <path id="Path_257" data-name="Path 257" d="M452.323,104.146v12.18h-2.8v-10.77l2.8-1.808Zm-.433,11.747v-11.35l-1.936,1.249v10.1Z" transform="translate(-437.01 -93.884)" fill="#23a15f"/>
    <path id="Path_258" data-name="Path 258" d="M602.093,7.575V22.443h-2.8V8.986l2.8-1.808Zm-.433,14.435V7.972l-1.936,1.249V22.01Z" transform="translate(-582.611)" fill="#23a15f"/>
  </g>
</svg>
